<?xml version="1.0" encoding="utf-8"?>
<!-- Made by Synel - SVG Version: 6.00 Build 0)  -->
<svg version="1.1" id="Calque_1" xmlns="http://www.w3.org/2000/svg" xmlns:xlink="http://www.w3.org/1999/xlink" x="0px" y="0px"
	 viewBox="0 0 384 384" style="enable-background:new 0 0 384 384;" xml:space="preserve">
<style type="text/css">
	.st0{fill:#27ABB2;stroke:#000000;stroke-width:5;stroke-miterlimit:10;}
	.st1{fill:#1DD6D6;}
	.st2{fill:#B3B293;stroke:#868E8B;stroke-width:5;stroke-miterlimit:10;}
	.st3{fill:#929679;}
	.st4{fill:#FFFFFF;}
	.st5{fill:#656769;stroke:#44403C;stroke-width:5;stroke-miterlimit:10;}
	.st6{fill:#525251;}
	.st7{fill:#27ABB2;}
	.st8{fill:#87898C;}
	.st9{fill:none;}
	.st10{fill:#656769;}
	.st11{fill:#FFE600;stroke:#44403C;stroke-width:5;stroke-miterlimit:10;}
	.st12{fill:none;stroke:#676167;stroke-width:3;stroke-miterlimit:10;}
	.st13{fill:#929292;}
	.st14{fill:#AEAEAE;}
	.st15{fill:#7D7C7C;}
	.st16{fill:none;stroke:#A23527;stroke-width:3;stroke-miterlimit:10;}
	.st17{fill:#F66949;}
	.st18{fill:#FD9E6D;}
	.st19{fill:#D7503D;}
	.st20{fill:#AF0B00;stroke:#000000;stroke-width:3;stroke-miterlimit:10;}
	.st21{fill:none;stroke:#44403C;stroke-width:5;stroke-miterlimit:10;}
</style>
<path class="st0" d="M142,357.7l-5-33c0-6.6,5.4-12,12-12h6c6.6,0,12,5.4,12,12l-5,33c-2,7-2,15-10,15h0
	C144,372.7,144,364.7,142,357.7z"/>
<path class="st0" d="M222,357.7l-5-33c0-6.6,5.4-12,12-12h6c6.6,0,12,5.4,12,12l-5,33c-2,7-2,15-10,15h0
	C224,372.7,224,364.7,222,357.7z"/>
<path class="st0" d="M76.5,287.6l12.2-31.1c3.3-5.7,10.7-7.7,16.4-4.4l5.2,3c5.7,3.3,7.7,10.7,4.4,16.4l-20.8,26.1
	c-5.2,5.1-9.2,12-16.2,8l0,0C70.7,301.6,74.7,294.7,76.5,287.6z"/>
<path class="st0" d="M290.2,297.6l-20.8-26.1c-3.3-5.7-1.3-13.1,4.4-16.4l5.2-3c5.7-3.3,13.1-1.3,16.4,4.4l12.2,31.1
	c1.8,7.1,5.8,14-1.2,18h0C299.4,309.6,295.4,302.7,290.2,297.6z"/>
<g>
	<g>
		<path class="st1" d="M102,318.7c0,11,9,20,20,20h140c11,0,20-9,20-20v-184H102V318.7z"/>
	</g>
</g>
<rect x="117" y="173.7" class="st2" width="150" height="50"/>
<rect x="119.5" y="216.2" class="st3" width="145" height="5"/>
<circle cx="233" cy="213.7" r="15"/>
<circle cx="151" cy="213.7" r="15"/>
<circle class="st4" cx="154" cy="206.7" r="4"/>
<circle class="st4" cx="236" cy="206.7" r="4"/>
<g>
	<g>
		<path d="M282,143.7v175c0,11-9,20-20,20H122c-11,0-20-9-20-20v-175H282 M292,133.7H92v185c0,16.6,13.4,30,30,30h140
			c16.6,0,30-13.4,30-30V133.7L292,133.7z"/>
	</g>
</g>
<path class="st5" d="M72,123.2V153c0,5.6,3.2,10.8,8.2,13.4l80.1,40.7c19.9,10.1,43.5,10.1,63.5,0l80.1-40.7c5-2.6,8.2-7.7,8.2-13.4
	v-29.7"/>
<path class="st6" d="M74.5,106.7v38.9l86.4,44.9c19.5,10.1,42.6,10.1,62.1,0l86.4-44.9v-38.9"/>
<g>
	<g>
		<path class="st7" d="M263,329H121c-7.6,0-14.3-3.4-18.9-8.7c0.7,10.4,9.3,18.7,19.9,18.7h140c10.6,0,19.3-8.3,19.9-18.7
			C277.3,325.7,270.6,329,263,329z"/>
	</g>
</g>
<path class="st5" d="M315.4,76.1l-3.4-1.9L209.8,16c-11-6.3-24.6-6.3-35.6,0L72,74.2l-3.4,1.9c-17.5,10-17.5,35.2,0,45.2l3.4,1.9
	l102.2,58.2c11,6.3,24.6,6.3,35.6,0L312,123.2l3.4-1.9C332.9,111.3,332.9,86.1,315.4,76.1z"/>
<path class="st8" d="M315.1,119.7l-108.5,61c-9.1,5.1-20.3,5.1-29.4,0l-108.5-61c-16.3-9.2-16.3-32.7,0-41.8l108.5-61
	c9.1-5.1,20.3-5.1,29.4,0l108.5,61C331.4,87,331.4,110.5,315.1,119.7z"/>
<g>
	<path class="st9" d="M185.7,186c4,1.9,8.7,1.9,12.7,0C194.3,187.2,189.7,187.2,185.7,186z"/>
</g>
<g>
	<path class="st10" d="M68.9,120.2l108.3,60.5c9.1,5.1,20.2,5.1,29.4,0l108.3-60.5c5-2.8,8.4-6.9,10.4-11.5c-2-2.5-4.8-4.6-8.3-6.3
		L208.6,52.6c-9.1-4.2-20.2-4.2-29.4,0L71,102.4c-5.1,2.4-8.7,5.9-10.6,9.9C62.5,115.4,65.3,118.1,68.9,120.2z"/>
</g>
<ellipse class="st11" cx="192" cy="88.7" rx="22.5" ry="10"/>
<g>
	<path class="st12" d="M207,258.7h-30c-2.8,0-5-2.3-5-5v-10c0-2.8,2.3-5,5-5h30c2.8,0,5,2.3,5,5v10C212,256.4,209.8,258.7,207,258.7
		z"/>
	<path class="st13" d="M206.4,257.4h-28.8c-2.4,0-4.4-2-4.4-4.4v-8.8c0-2.4,2-4.4,4.4-4.4h28.8c2.4,0,4.4,2,4.4,4.4v8.8
		C210.8,255.5,208.8,257.4,206.4,257.4z"/>
	<path class="st14" d="M176.4,242.5h31.3c1.2,0,2.3,0.5,3.1,1.3c0-2.4-2-4.3-4.4-4.3h-28.8c-2.4,0-4.3,1.9-4.4,4.3
		C174.1,243,175.2,242.5,176.4,242.5z"/>
	<path class="st15" d="M175.9,254.6c-1,0-1.8-0.3-2.6-0.9c0.3,2.2,2.1,3.9,4.3,3.9h28.8c2.2,0,4.1-1.7,4.3-3.9
		c-0.7,0.5-1.6,0.9-2.6,0.9H175.9z"/>
</g>
<g>
	<path class="st12" d="M261,258.7h-30c-2.8,0-5-2.3-5-5v-10c0-2.8,2.3-5,5-5h30c2.8,0,5,2.3,5,5v10C266,256.4,263.8,258.7,261,258.7
		z"/>
	<path class="st13" d="M260.4,257.4h-28.8c-2.4,0-4.4-2-4.4-4.4v-8.8c0-2.4,2-4.4,4.4-4.4h28.8c2.4,0,4.4,2,4.4,4.4v8.8
		C264.8,255.5,262.8,257.4,260.4,257.4z"/>
	<path class="st14" d="M230.4,242.5h31.3c1.2,0,2.3,0.5,3.1,1.3c0-2.4-2-4.3-4.4-4.3h-28.8c-2.4,0-4.3,1.9-4.4,4.3
		C228.1,243,229.2,242.5,230.4,242.5z"/>
	<path class="st15" d="M229.9,254.6c-1,0-1.8-0.3-2.6-0.9c0.3,2.2,2.1,3.9,4.3,3.9h28.8c2.2,0,4.1-1.7,4.3-3.9
		c-0.7,0.5-1.6,0.9-2.6,0.9H229.9z"/>
</g>
<g>
	<path class="st12" d="M153,258.7h-30c-2.8,0-5-2.3-5-5v-10c0-2.8,2.3-5,5-5h30c2.8,0,5,2.3,5,5v10C158,256.4,155.8,258.7,153,258.7
		z"/>
	<path class="st13" d="M152.4,257.4h-28.8c-2.4,0-4.4-2-4.4-4.4v-8.8c0-2.4,2-4.4,4.4-4.4h28.8c2.4,0,4.4,2,4.4,4.4v8.8
		C156.8,255.5,154.8,257.4,152.4,257.4z"/>
	<path class="st14" d="M122.4,242.5h31.3c1.2,0,2.3,0.5,3.1,1.3c0-2.4-2-4.3-4.4-4.3h-28.8c-2.4,0-4.3,1.9-4.4,4.3
		C120.1,243,121.2,242.5,122.4,242.5z"/>
	<path class="st15" d="M121.9,254.6c-1,0-1.8-0.3-2.6-0.9c0.3,2.2,2.1,3.9,4.3,3.9h28.8c2.2,0,4.1-1.7,4.3-3.9
		c-0.7,0.5-1.6,0.9-2.6,0.9H121.9z"/>
</g>
<g>
	<path class="st12" d="M207,288.7h-30c-2.8,0-5-2.3-5-5v-10c0-2.8,2.3-5,5-5h30c2.8,0,5,2.3,5,5v10C212,286.4,209.8,288.7,207,288.7
		z"/>
	<path class="st13" d="M206.4,287.4h-28.8c-2.4,0-4.4-2-4.4-4.4v-8.8c0-2.4,2-4.4,4.4-4.4h28.8c2.4,0,4.4,2,4.4,4.4v8.8
		C210.8,285.5,208.8,287.4,206.4,287.4z"/>
	<path class="st14" d="M176.4,272.5h31.3c1.2,0,2.3,0.5,3.1,1.3c0-2.4-2-4.3-4.4-4.3h-28.8c-2.4,0-4.3,1.9-4.4,4.3
		C174.1,273,175.2,272.5,176.4,272.5z"/>
	<path class="st15" d="M175.9,284.6c-1,0-1.8-0.3-2.6-0.9c0.3,2.2,2.1,3.9,4.3,3.9h28.8c2.2,0,4.1-1.7,4.3-3.9
		c-0.7,0.5-1.6,0.9-2.6,0.9H175.9z"/>
</g>
<g>
	<path class="st12" d="M261,288.7h-30c-2.8,0-5-2.3-5-5v-10c0-2.8,2.3-5,5-5h30c2.8,0,5,2.3,5,5v10C266,286.4,263.8,288.7,261,288.7
		z"/>
	<path class="st13" d="M260.4,287.4h-28.8c-2.4,0-4.4-2-4.4-4.4v-8.8c0-2.4,2-4.4,4.4-4.4h28.8c2.4,0,4.4,2,4.4,4.4v8.8
		C264.8,285.5,262.8,287.4,260.4,287.4z"/>
	<path class="st14" d="M230.4,272.5h31.3c1.2,0,2.3,0.5,3.1,1.3c0-2.4-2-4.3-4.4-4.3h-28.8c-2.4,0-4.3,1.9-4.4,4.3
		C228.1,273,229.2,272.5,230.4,272.5z"/>
	<path class="st15" d="M229.9,284.6c-1,0-1.8-0.3-2.6-0.9c0.3,2.2,2.1,3.9,4.3,3.9h28.8c2.2,0,4.1-1.7,4.3-3.9
		c-0.7,0.5-1.6,0.9-2.6,0.9H229.9z"/>
</g>
<g>
	<path class="st12" d="M153,288.7h-30c-2.8,0-5-2.3-5-5v-10c0-2.8,2.3-5,5-5h30c2.8,0,5,2.3,5,5v10C158,286.4,155.8,288.7,153,288.7
		z"/>
	<path class="st13" d="M152.4,287.4h-28.8c-2.4,0-4.4-2-4.4-4.4v-8.8c0-2.4,2-4.4,4.4-4.4h28.8c2.4,0,4.4,2,4.4,4.4v8.8
		C156.8,285.5,154.8,287.4,152.4,287.4z"/>
	<path class="st14" d="M122.4,272.5h31.3c1.2,0,2.3,0.5,3.1,1.3c0-2.4-2-4.3-4.4-4.3h-28.8c-2.4,0-4.3,1.9-4.4,4.3
		C120.1,273,121.2,272.5,122.4,272.5z"/>
	<path class="st15" d="M121.9,284.6c-1,0-1.8-0.3-2.6-0.9c0.3,2.2,2.1,3.9,4.3,3.9h28.8c2.2,0,4.1-1.7,4.3-3.9
		c-0.7,0.5-1.6,0.9-2.6,0.9H121.9z"/>
</g>
<g>
	<path class="st12" d="M207,318.7h-30c-2.8,0-5-2.3-5-5v-10c0-2.8,2.3-5,5-5h30c2.8,0,5,2.3,5,5v10C212,316.4,209.8,318.7,207,318.7
		z"/>
	<path class="st13" d="M206.4,317.4h-28.8c-2.4,0-4.4-2-4.4-4.4v-8.8c0-2.4,2-4.4,4.4-4.4h28.8c2.4,0,4.4,2,4.4,4.4v8.8
		C210.8,315.5,208.8,317.4,206.4,317.4z"/>
	<path class="st14" d="M176.4,302.5h31.3c1.2,0,2.3,0.5,3.1,1.3c0-2.4-2-4.3-4.4-4.3h-28.8c-2.4,0-4.3,1.9-4.4,4.3
		C174.1,303,175.2,302.5,176.4,302.5z"/>
	<path class="st15" d="M175.9,314.6c-1,0-1.8-0.3-2.6-0.9c0.3,2.2,2.1,3.9,4.3,3.9h28.8c2.2,0,4.1-1.7,4.3-3.9
		c-0.7,0.5-1.6,0.9-2.6,0.9H175.9z"/>
</g>
<g>
	<path class="st16" d="M261,318.7h-30c-2.8,0-5-2.3-5-5v-10c0-2.8,2.3-5,5-5h30c2.8,0,5,2.3,5,5v10C266,316.4,263.8,318.7,261,318.7
		z"/>
	<path class="st17" d="M260.4,317.4h-28.8c-2.4,0-4.4-2-4.4-4.4v-8.8c0-2.4,2-4.4,4.4-4.4h28.8c2.4,0,4.4,2,4.4,4.4v8.8
		C264.8,315.5,262.8,317.4,260.4,317.4z"/>
	<path class="st18" d="M230.4,302.5h31.3c1.2,0,2.3,0.5,3.1,1.3c0-2.4-2-4.3-4.4-4.3h-28.8c-2.4,0-4.3,1.9-4.4,4.3
		C228.1,303,229.2,302.5,230.4,302.5z"/>
	<path class="st19" d="M229.9,314.6c-1,0-1.8-0.3-2.6-0.9c0.3,2.2,2.1,3.9,4.3,3.9h28.8c2.2,0,4.1-1.7,4.3-3.9
		c-0.7,0.5-1.6,0.9-2.6,0.9H229.9z"/>
</g>
<g>
	<path class="st12" d="M153,318.7h-30c-2.8,0-5-2.3-5-5v-10c0-2.8,2.3-5,5-5h30c2.8,0,5,2.3,5,5v10C158,316.4,155.8,318.7,153,318.7
		z"/>
	<path class="st13" d="M152.4,317.4h-28.8c-2.4,0-4.4-2-4.4-4.4v-8.8c0-2.4,2-4.4,4.4-4.4h28.8c2.4,0,4.4,2,4.4,4.4v8.8
		C156.8,315.5,154.8,317.4,152.4,317.4z"/>
	<path class="st14" d="M122.4,302.5h31.3c1.2,0,2.3,0.5,3.1,1.3c0-2.4-2-4.3-4.4-4.3h-28.8c-2.4,0-4.3,1.9-4.4,4.3
		C120.1,303,121.2,302.5,122.4,302.5z"/>
	<path class="st15" d="M121.9,314.6c-1,0-1.8-0.3-2.6-0.9c0.3,2.2,2.1,3.9,4.3,3.9h28.8c2.2,0,4.1-1.7,4.3-3.9
		c-0.7,0.5-1.6,0.9-2.6,0.9H121.9z"/>
</g>
<ellipse class="st20" cx="192" cy="248.7" rx="10" ry="15"/>
<line class="st21" x1="175.5" y1="95.2" x2="102.5" y2="140.2"/>
<line class="st21" x1="102.5" y1="224.2" x2="102.5" y2="140.2"/>
<path class="st11" d="M109.9,235.3l7.6,17.2c0,1.3-0.7,2.6-1.9,3.3l-3.5,2c-5.9,3.4-13.2,3.4-19.1,0l-3.5-2
	c-1.2-0.7-1.9-1.9-1.9-3.3l7.6-17.2H109.9z"/>
<ellipse class="st11" cx="102.5" cy="230.7" rx="10" ry="7.5"/>
</svg>
